<svg width="24" height="24" viewBox="0 0 24 24" fill="none" xmlns="http://www.w3.org/2000/svg">
<path fill-rule="evenodd" clip-rule="evenodd" d="M20.8897 0.792109C19.8768 -0.264601 18.2352 -0.263954 17.223 0.793557L9.39481 8.97418C8.76871 9.62835 8.40061 10.5041 8.36335 11.428L8.25192 14.192C8.20117 15.4506 9.16472 16.4998 10.3713 16.4999L12.967 16.5C13.92 16.5 14.8327 16.0984 15.4981 15.3861L23.2633 7.04885C24.2546 5.98778 24.2442 4.29168 23.2399 3.24398L20.8897 0.792109ZM18.2234 1.8372C18.6835 1.35651 19.4297 1.35622 19.8901 1.83654L22.2403 4.28841C22.6968 4.76464 22.7015 5.53559 22.2509 6.0179L20.6914 7.6872L16.6548 3.47609L18.2234 1.8372ZM15.6552 4.52052L10.3952 10.0178C10.0195 10.4103 9.79867 10.9358 9.77632 11.4901L9.66488 14.2541C9.64796 14.6736 9.96915 15.0234 10.3713 15.0234L12.9671 15.0235C13.5389 15.0235 14.0865 14.7826 14.4857 14.3552L19.7038 8.74424L15.6552 4.52052Z" fill="#404040"/>
<path d="M21.9 12.1V17C21.9 19.7614 19.6614 22 16.9 22H8C5.23857 22 3 19.7614 3 17V7.20001C3 4.43859 5.23858 2.20001 8 2.20001H12.45" stroke="#404040" stroke-width="1.5" stroke-linecap="round"/>
</svg>
