<svg width="13" height="13" viewBox="0 0 13 13" fill="none" xmlns="http://www.w3.org/2000/svg">
<path fill-rule="evenodd" clip-rule="evenodd" d="M12.2996 0.700374C12.4468 0.847511 12.4966 1.06593 12.4279 1.26233L8.63621 12.0956C8.56284 12.3052 8.36894 12.4488 8.14703 12.4579C7.92513 12.467 7.72017 12.3396 7.62997 12.1367L5.54793 7.45207L0.863322 5.37002C0.660371 5.27982 0.533045 5.07487 0.542099 4.85296C0.551152 4.63105 0.694749 4.43716 0.904374 4.36379L11.7377 0.572134C11.9341 0.503394 12.1525 0.553237 12.2996 0.700374ZM6.60436 7.16166L8.06504 10.4482L10.6212 3.14479L6.60436 7.16166ZM9.8552 2.37876L2.55181 4.93495L5.83833 6.39563L9.8552 2.37876Z" fill="#263238"/>
</svg>
