<svg width="51" height="45" viewBox="0 0 51 45" fill="none" xmlns="http://www.w3.org/2000/svg">
<path d="M50.267 32.4651C50.267 39.388 44.655 45 37.7322 45L18.9299 45C17.0069 45 15.448 43.4411 15.448 41.5181L15.448 17.8411C15.448 13.9951 18.5658 10.8773 22.4118 10.8773L46.7851 10.8773C48.7081 10.8773 50.267 12.4362 50.267 14.3592L50.267 32.4651Z" fill="#B2FFB8"/>
<path d="M16.7062 6.96381C14.2193 6.96381 12.1947 9.00691 12.1947 11.5045C12.1947 13.0844 13.006 14.4795 14.2311 15.2926C12.7514 15.7874 11.471 16.7121 10.5319 17.9218C10.0127 17.5225 9.4326 17.2013 8.80719 16.9712C9.75557 16.2671 10.3753 15.1361 10.3753 13.8649C10.3753 11.7467 8.66217 10.0127 6.55678 10.0127C4.45141 10.0127 2.73825 11.7467 2.73825 13.8649C2.73825 15.1368 3.35852 16.2683 4.30769 16.9724C1.79475 17.8997 3.05312e-05 20.3275 3.05312e-05 23.1848V25.1919C0.000287738 25.3449 0.0614909 25.4915 0.170009 25.5992C0.278527 25.7072 0.425365 25.7674 0.578373 25.7669H9.38409C9.40543 25.7692 9.42678 25.7705 9.44812 25.7702H23.9648C23.9861 25.7705 24.0077 25.7692 24.0288 25.7669H32.8352C33.1517 25.7656 33.4081 25.5087 33.4089 25.1919V23.1848C33.4089 20.3275 31.6173 17.8997 29.1056 16.9721C30.0548 16.2683 30.6751 15.1365 30.6751 13.8647C30.6751 11.7465 28.9619 10.0124 26.8566 10.0124C24.7512 10.0124 23.038 11.7465 23.038 13.8647C23.038 15.1358 23.658 16.267 24.6064 16.9709C23.9797 17.2016 23.3993 17.5238 22.8794 17.9241C21.9407 16.7137 20.6621 15.7877 19.1825 15.2926C20.4073 14.4795 21.2189 13.0844 21.2189 11.5045C21.2189 9.00691 19.1933 6.96381 16.7063 6.96381H16.7062ZM16.7062 8.11587C18.5662 8.11587 20.0657 9.62541 20.0657 11.5045C20.0657 13.3688 18.5896 14.8637 16.7502 14.8876C16.7355 14.8876 16.7211 14.8856 16.7062 14.8856C16.6913 14.8856 16.6771 14.8876 16.6622 14.8876C14.8228 14.864 13.3477 13.3689 13.3477 11.5045C13.3477 9.62514 14.8459 8.11587 16.7059 8.11587H16.7062ZM6.55685 11.1647C8.03268 11.1647 9.22332 12.3625 9.22332 13.8649C9.22332 15.3572 8.04808 16.5498 6.58615 16.566C6.57637 16.566 6.56686 16.565 6.55683 16.565C6.54706 16.565 6.53754 16.566 6.52752 16.566C5.06558 16.5498 3.89034 15.3569 3.89034 13.8649C3.89034 12.3626 5.08098 11.1647 6.55681 11.1647H6.55685ZM26.8562 11.1647C28.332 11.1647 29.5227 12.3625 29.5227 13.8649C29.5227 15.3572 28.3474 16.5498 26.8855 16.566C26.8757 16.566 26.8662 16.565 26.8562 16.565C26.8464 16.565 26.8369 16.566 26.8269 16.566C25.3649 16.5498 24.1897 15.3569 24.1897 13.8649C24.1897 12.3626 25.3803 11.1647 26.8562 11.1647H26.8562ZM16.6621 16.0396C16.6768 16.0399 16.6912 16.0417 16.7061 16.0417C16.7207 16.0417 16.7351 16.0396 16.75 16.0396C20.439 16.0633 23.3912 19.0409 23.3912 22.7683L23.3909 24.6178H10.0217V22.7683C10.0217 19.0406 12.9731 16.0633 16.6616 16.0396H16.6621ZM6.51274 17.7194C6.5274 17.7197 6.5418 17.7215 6.55672 17.7215C6.57163 17.7215 6.58578 17.7194 6.60069 17.7194C7.84841 17.7294 8.98711 18.1597 9.89382 18.8794C9.24501 20.0274 8.8698 21.3525 8.8698 22.7687V24.6138H1.15163V23.1847C1.15163 20.1554 3.53344 17.743 6.51261 17.7191L6.51274 17.7194ZM26.8121 17.7194C26.827 17.7197 26.8412 17.7215 26.8561 17.7215C26.871 17.7215 26.8851 17.7194 26.9 17.7194C29.8792 17.7431 32.261 20.1557 32.261 23.185V24.6138H24.5389L24.5387 22.7687C24.5387 21.3533 24.1645 20.0292 23.5169 18.8815C24.4239 18.1607 25.5634 17.7294 26.8122 17.7194H26.8121Z" fill="#404040"/>
</svg>
