<svg width="55" height="40" viewBox="0 0 55 40" fill="none" xmlns="http://www.w3.org/2000/svg">
<path d="M54.4647 27.4373C54.4647 34.3755 48.8402 40 41.902 40L23.058 40C21.1307 40 19.5683 38.4376 19.5683 36.5104L19.5683 12.7808C19.5683 8.92626 22.6931 5.80154 26.5476 5.80154L50.9751 5.80154C52.9024 5.80154 54.4647 7.3639 54.4647 9.29118L54.4647 27.4373Z" fill="#B2FFB8"/>
<path d="M10.4931 25.3309H9.74114H10.4931ZM13.5933 29.1559L13.7021 28.4118H13.7021L13.5933 29.1559ZM25.1487 29.1559L25.0399 28.4118H25.0399L25.1487 29.1559ZM27.7197 23.3003L28.3743 22.9301L27.7197 23.3003ZM11.0223 23.3003L10.3678 22.93L11.0223 23.3003ZM22.4732 32.8466C22.6947 32.4953 22.5895 32.0309 22.2382 31.8094C21.887 31.5878 21.4226 31.693 21.201 32.0443L21.8371 32.4454L22.4732 32.8466ZM17.541 32.0443C17.3195 31.693 16.8551 31.5878 16.5038 31.8094C16.1525 32.0309 16.0473 32.4953 16.2689 32.8466L16.905 32.4454L17.541 32.0443ZM18.8163 4.93782C18.8163 5.35314 19.153 5.68983 19.5683 5.68983C19.9836 5.68983 20.3203 5.35314 20.3203 4.93782H19.5683H18.8163ZM20.3203 0.752002C20.3203 0.336683 19.9836 0 19.5683 0C19.153 0 18.8163 0.336683 18.8163 0.752002H19.5683H20.3203ZM26.0596 7.26246C25.7635 7.55376 25.7597 8.02988 26.051 8.32592C26.3423 8.62196 26.8184 8.6258 27.1145 8.33451L26.587 7.79849L26.0596 7.26246ZM30.1225 5.37469C30.4185 5.08339 30.4224 4.60727 30.1311 4.31123C29.8398 4.01519 29.3636 4.01135 29.0676 4.30264L29.595 4.83866L30.1225 5.37469ZM12.0222 8.3345C12.3183 8.6258 12.7944 8.62195 13.0857 8.32591C13.377 8.02988 13.3731 7.55375 13.0771 7.26246L12.5497 7.79848L12.0222 8.3345ZM10.0691 4.30263C9.77304 4.01134 9.29691 4.01519 9.00562 4.31122C8.71432 4.60726 8.71817 5.08339 9.01421 5.37468L9.54164 4.83866L10.0691 4.30263ZM12.466 17.2006H13.218C13.218 13.5576 16.0098 10.6729 19.371 10.6729V9.92094V9.16894C15.1052 9.16894 11.714 12.8028 11.714 17.2006H12.466ZM12.466 19.7032H13.218V17.2006H12.466H11.714V19.7032H12.466ZM10.4931 25.3309H11.2451C11.2451 24.7204 11.4038 24.1533 11.6768 23.6706L11.0223 23.3003L10.3678 22.93C9.96866 23.6356 9.74114 24.4574 9.74114 25.3309H10.4931ZM13.5933 29.1559L13.7021 28.4118C12.3159 28.2092 11.2451 26.9225 11.2451 25.3309H10.4931H9.74114C9.74114 27.5732 11.2686 29.576 13.4846 29.9L13.5933 29.1559ZM19.371 29.6804V28.9283C17.6743 28.9283 15.4843 28.6724 13.7021 28.4118L13.5933 29.1559L13.4846 29.9C15.2795 30.1624 17.5594 30.4324 19.371 30.4324V29.6804ZM25.1487 29.1559L25.0399 28.4118C23.2577 28.6724 21.0677 28.9283 19.371 28.9283V29.6804V30.4324C21.1826 30.4324 23.4625 30.1624 25.2574 29.9L25.1487 29.1559ZM28.2489 25.3309H27.4969C27.4969 26.9225 26.4261 28.2092 25.0399 28.4118L25.1487 29.1559L25.2574 29.9C27.4735 29.576 29.0009 27.5732 29.0009 25.3309H28.2489ZM27.7197 23.3003L27.0652 23.6706C27.3382 24.1533 27.4969 24.7204 27.4969 25.3309H28.2489H29.0009C29.0009 24.4574 28.7734 23.6356 28.3743 22.9301L27.7197 23.3003ZM26.276 17.2006H25.524V19.7032H26.276H27.028V17.2006H26.276ZM19.371 9.92094V10.6729C22.7323 10.6729 25.524 13.5576 25.524 17.2006H26.276H27.028C27.028 12.8028 23.6368 9.16894 19.371 9.16894V9.92094ZM27.7197 23.3003L28.3743 22.9301C28.0292 22.3201 27.7035 21.8108 27.4378 21.2496C27.1815 20.7083 27.028 20.2065 27.028 19.7032H26.276H25.524C25.524 20.5159 25.7727 21.2476 26.0784 21.8932C26.3747 22.519 26.7709 23.1503 27.0652 23.6706L27.7197 23.3003ZM12.466 19.7032H11.714C11.714 20.2065 11.5606 20.7082 11.3042 21.2496C11.0385 21.8108 10.7128 22.32 10.3678 22.93L11.0223 23.3003L11.6768 23.6706C11.9711 23.1503 12.3673 22.519 12.6636 21.8932C12.9693 21.2475 13.218 20.5159 13.218 19.7032H12.466ZM19.371 33.8401V34.5921C20.6809 34.5921 21.8176 33.886 22.4732 32.8466L21.8371 32.4454L21.201 32.0443C20.7962 32.6861 20.1198 33.0881 19.371 33.0881V33.8401ZM16.905 32.4454L16.2689 32.8466C16.9244 33.886 18.0612 34.5921 19.371 34.5921V33.8401V33.0881C18.6222 33.0881 17.9458 32.6861 17.541 32.0443L16.905 32.4454ZM19.5683 4.93782H20.3203V0.752002H19.5683H18.8163V4.93782H19.5683ZM26.587 7.79849L27.1145 8.33451L30.1225 5.37469L29.595 4.83866L29.0676 4.30264L26.0596 7.26246L26.587 7.79849ZM12.5497 7.79848L13.0771 7.26246L10.0691 4.30263L9.54164 4.83866L9.01421 5.37468L12.0222 8.3345L12.5497 7.79848Z" fill="#404040"/>
</svg>
