<svg width="28" height="29" viewBox="0 0 28 29" fill="none" xmlns="http://www.w3.org/2000/svg">
<path d="M0.5 0.5H5.33333L8.57167 18.3533C8.68216 18.9672 8.98481 19.5186 9.42662 19.9111C9.86843 20.3035 10.4213 20.512 10.9883 20.5H22.7333C23.3004 20.512 23.8532 20.3035 24.295 19.9111C24.7369 19.5186 25.0395 18.9672 25.15 18.3533L27.0833 7.16667H6.54167M11.375 27.1667C11.375 27.903 10.834 28.5 10.1667 28.5C9.49932 28.5 8.95833 27.903 8.95833 27.1667C8.95833 26.4303 9.49932 25.8333 10.1667 25.8333C10.834 25.8333 11.375 26.4303 11.375 27.1667ZM24.6667 27.1667C24.6667 27.903 24.1257 28.5 23.4583 28.5C22.791 28.5 22.25 27.903 22.25 27.1667C22.25 26.4303 22.791 25.8333 23.4583 25.8333C24.1257 25.8333 24.6667 26.4303 24.6667 27.1667Z" stroke="#1E1E1E" stroke-linecap="round" stroke-linejoin="round"/>
</svg>
