<svg width="23" height="23" viewBox="0 0 23 23" fill="none" xmlns="http://www.w3.org/2000/svg">
<path opacity="0.1" fill-rule="evenodd" clip-rule="evenodd" d="M0 11.5C0 5.14873 5.14873 0 11.5 0C17.8513 0 23 5.14873 23 11.5C23 17.8513 17.8513 23 11.5 23C5.14873 23 0 17.8513 0 11.5Z" fill="#263238"/>
<path fill-rule="evenodd" clip-rule="evenodd" d="M17.6333 11.4914C17.6333 11.9062 17.5911 12.3204 17.5082 12.7242C17.4273 13.1184 17.3075 13.5053 17.1506 13.8753C16.9972 14.2387 16.8071 14.5888 16.5848 14.9154C16.3659 15.2399 16.1137 15.5444 15.8367 15.8219C15.5591 16.0982 15.2536 16.3497 14.9292 16.5695C14.6016 16.7902 14.2509 16.9801 13.8873 17.1342C13.5168 17.2903 13.1289 17.4099 12.7351 17.4906C12.3308 17.5738 11.9151 17.6163 11.4997 17.6163C11.084 17.6163 10.6683 17.5738 10.2646 17.4906C9.87018 17.4099 9.48233 17.2903 9.11215 17.1342C8.74858 16.9801 8.39755 16.7902 8.06991 16.5695C7.74556 16.3497 7.44008 16.0982 7.16304 15.8219C6.88572 15.5444 6.63353 15.2399 6.4143 14.9154C6.19328 14.5888 6.00279 14.2386 5.84886 13.8753C5.6919 13.5053 5.57182 13.1183 5.49065 12.7242C5.4086 12.3204 5.36666 11.9062 5.36666 11.4914C5.36666 11.0763 5.40858 10.6613 5.49068 10.2584C5.57184 9.86421 5.69192 9.47664 5.84888 9.1073C6.00281 8.74365 6.1933 8.39316 6.41433 8.06656C6.63356 7.74179 6.88574 7.43793 7.16307 7.16009C7.4401 6.88374 7.74558 6.63285 8.06994 6.41334C8.39758 6.19172 8.7486 6.00184 9.11218 5.84751C9.48236 5.69107 9.87018 5.57117 10.2646 5.49103C10.6684 5.40849 11.084 5.36661 11.4997 5.36661C11.9151 5.36661 12.3308 5.40849 12.7351 5.49103C13.129 5.57119 13.5168 5.6911 13.8873 5.84751C14.2509 6.00182 14.6016 6.19172 14.9292 6.41334C15.2536 6.63285 15.5591 6.88374 15.8367 7.16009C16.1137 7.43793 16.3659 7.74179 16.5848 8.06656C16.8071 8.39316 16.9972 8.74367 17.1506 9.1073C17.3075 9.47664 17.4273 9.86421 17.5082 10.2584C17.5911 10.6613 17.6333 11.0763 17.6333 11.4914ZM9.26486 6.76054C7.80421 7.4493 6.71405 8.79328 6.37412 10.413C6.51221 10.4142 8.69493 10.4417 11.2098 9.7745C10.3032 8.16613 9.33465 6.85358 9.26486 6.76054ZM11.6437 10.5799C8.9468 11.3862 6.35885 11.3281 6.26602 11.3246C6.26451 11.3808 6.26182 11.4352 6.26182 11.4914C6.26182 12.8351 6.76946 14.0601 7.60385 14.9863C7.60205 14.9836 9.03546 12.4442 11.8621 11.5315C11.9304 11.5088 11.9998 11.4884 12.0687 11.4687C11.9373 11.1715 11.7938 10.8736 11.6437 10.5799ZM14.9589 7.56593C14.0367 6.75396 12.8259 6.26143 11.4997 6.26143C11.0741 6.26143 10.6611 6.31287 10.2655 6.40797C10.3439 6.51326 11.3278 7.81656 12.2236 9.45899C14.2 8.71912 14.946 7.58506 14.9589 7.56593ZM12.4258 12.3354C12.4141 12.3393 12.4024 12.3426 12.391 12.3468C9.30059 13.4226 8.29137 15.5907 8.28045 15.6143C9.16967 16.3048 10.285 16.7215 11.4997 16.7215C12.2251 16.7215 12.916 16.574 13.5447 16.307C13.4671 15.85 13.1628 14.2482 12.4258 12.3354ZM14.4267 15.8291C15.6028 15.0365 16.4381 13.7781 16.6711 12.3204C16.5632 12.2857 15.0978 11.8225 13.4072 12.0931C14.0942 13.9785 14.3733 15.5138 14.4267 15.8291ZM12.6267 10.2384C12.7483 10.4878 12.866 10.7416 12.9747 10.9968C13.0134 11.0883 13.0511 11.178 13.0879 11.2677C14.8873 11.0416 16.66 11.422 16.7358 11.4376C16.7238 10.1977 16.2797 9.05973 15.5447 8.16884C15.5348 8.18287 14.6947 9.39498 12.6267 10.2384Z" fill="#263238"/>
</svg>
