<svg width="23" height="23" viewBox="0 0 23 23" fill="none" xmlns="http://www.w3.org/2000/svg">
<path opacity="0.1" fill-rule="evenodd" clip-rule="evenodd" d="M0 11.5C0 5.14872 5.14872 0 11.5 0C17.8513 0 23 5.14872 23 11.5C23 17.8513 17.8513 23 11.5 23C5.14872 23 0 17.8513 0 11.5Z" fill="#263238"/>
<path fill-rule="evenodd" clip-rule="evenodd" d="M16.2924 7.54664C16.8203 7.69147 17.2359 8.11823 17.377 8.66017C17.6333 9.64237 17.6333 11.6918 17.6333 11.6918C17.6333 11.6918 17.6333 13.7411 17.377 14.7233C17.2359 15.2653 16.8203 15.692 16.2924 15.8369C15.3359 16.1001 11.5 16.1001 11.5 16.1001C11.5 16.1001 7.66409 16.1001 6.7075 15.8369C6.17969 15.692 5.76402 15.2653 5.62295 14.7233C5.36667 13.7411 5.36667 11.6918 5.36667 11.6918C5.36667 11.6918 5.36667 9.64237 5.62295 8.66017C5.76402 8.11823 6.17969 7.69147 6.7075 7.54664C7.66409 7.28342 11.5 7.28342 11.5 7.28342C11.5 7.28342 15.3359 7.28342 16.2924 7.54664ZM10.35 9.96671V13.8L13.4167 11.8834L10.35 9.96671Z" fill="#263238"/>
</svg>
