<svg width="23" height="23" viewBox="0 0 23 23" fill="none" xmlns="http://www.w3.org/2000/svg">
<path opacity="0.1" fill-rule="evenodd" clip-rule="evenodd" d="M0 11.5C0 5.14872 5.14872 0 11.5 0C17.8513 0 23 5.14872 23 11.5C23 17.8513 17.8513 23 11.5 23C5.14872 23 0 17.8513 0 11.5Z" fill="#263238"/>
<path fill-rule="evenodd" clip-rule="evenodd" d="M11.1556 9.34732L11.1797 9.74525L10.7775 9.69652C9.3135 9.50974 8.0345 8.87631 6.94856 7.81247L6.41765 7.28461L6.2809 7.67441C5.99132 8.54335 6.17633 9.46102 6.77963 10.0782C7.10139 10.4193 7.029 10.468 6.47396 10.265C6.2809 10.2 6.11198 10.1513 6.09589 10.1757C6.03958 10.2325 6.23264 10.9715 6.38548 11.2639C6.59462 11.6699 7.02095 12.0678 7.48751 12.3033L7.88166 12.4901L7.41511 12.4982C6.96465 12.4982 6.94856 12.5064 6.99682 12.6769C7.1577 13.2048 7.79318 13.7651 8.50105 14.0087L8.99978 14.1793L8.5654 14.4392C7.92188 14.8127 7.16575 15.0239 6.40961 15.0401C6.04763 15.0482 5.75 15.0807 5.75 15.1051C5.75 15.1863 6.73137 15.641 7.30249 15.8197C9.01587 16.3476 11.051 16.1202 12.5794 15.2188C13.6653 14.5772 14.7512 13.3022 15.258 12.0678C15.5315 11.41 15.805 10.2081 15.805 9.63156C15.805 9.25799 15.8291 9.20927 16.2796 8.76262C16.5451 8.50275 16.7944 8.21851 16.8427 8.13731C16.9231 7.98301 16.9151 7.98301 16.5048 8.12106C15.8211 8.36469 15.7246 8.33221 16.0624 7.96677C16.3118 7.7069 16.6094 7.23588 16.6094 7.09783C16.6094 7.07346 16.4888 7.11407 16.352 7.18716C16.2072 7.26837 15.8855 7.39018 15.6441 7.46327L15.2098 7.60132L14.8156 7.33333C14.5984 7.18716 14.2927 7.02474 14.1319 6.97601C13.7216 6.86232 13.0942 6.87856 12.7242 7.0085C11.7187 7.37394 11.0832 8.31597 11.1556 9.34732Z" fill="#263238"/>
</svg>
