<svg width="23" height="23" viewBox="0 0 23 23" fill="none" xmlns="http://www.w3.org/2000/svg">
<path opacity="0.1" fill-rule="evenodd" clip-rule="evenodd" d="M0 11.5C0 5.14873 5.14873 0 11.5 0C17.8513 0 23 5.14873 23 11.5C23 17.8513 17.8513 23 11.5 23C5.14873 23 0 17.8513 0 11.5Z" fill="#263238"/>
<path fill-rule="evenodd" clip-rule="evenodd" d="M11.5006 5.36661C9.83485 5.36661 9.6258 5.3739 8.97157 5.40367C8.31862 5.43357 7.87293 5.53694 7.48294 5.68862C7.07955 5.84527 6.73735 6.05483 6.39644 6.39587C6.05527 6.73679 5.84571 7.07898 5.68854 7.48225C5.53649 7.87236 5.43298 8.31818 5.4036 8.97088C5.37433 9.62511 5.36667 9.83428 5.36667 11.5C5.36667 13.1657 5.37408 13.3741 5.40372 14.0284C5.43375 14.6813 5.53712 15.127 5.68867 15.517C5.84546 15.9204 6.05501 16.2626 6.39606 16.6035C6.73684 16.9447 7.07903 17.1547 7.48218 17.3114C7.87242 17.4631 8.31824 17.5664 8.97106 17.5963C9.62529 17.6261 9.83421 17.6334 11.4998 17.6334C13.1657 17.6334 13.3741 17.6261 14.0283 17.5963C14.6813 17.5664 15.1275 17.4631 15.5177 17.3114C15.921 17.1547 16.2626 16.9447 16.6034 16.6035C16.9446 16.2626 17.1542 15.9204 17.3113 15.5171C17.4621 15.127 17.5656 14.6812 17.5963 14.0285C17.6257 13.3743 17.6333 13.1657 17.6333 11.5C17.6333 9.83428 17.6257 9.62523 17.5963 8.971C17.5656 8.31805 17.4621 7.87236 17.3113 7.48238C17.1542 7.07898 16.9446 6.73679 16.6034 6.39587C16.2623 6.0547 15.9211 5.84514 15.5173 5.68862C15.1263 5.53694 14.6804 5.43357 14.0274 5.40367C13.3732 5.3739 13.1649 5.36661 11.4987 5.36661H11.5006ZM10.9503 6.47188C11.1136 6.47163 11.2958 6.47188 11.5005 6.47188C13.1382 6.47188 13.3323 6.47776 13.979 6.50715C14.577 6.5345 14.9015 6.63442 15.1177 6.71837C15.4039 6.82954 15.608 6.96243 15.8225 7.1771C16.0372 7.39177 16.1701 7.59621 16.2815 7.88244C16.3655 8.09838 16.4655 8.42294 16.4928 9.02095C16.5221 9.66751 16.5285 9.86174 16.5285 11.4986C16.5285 13.1354 16.5221 13.3297 16.4928 13.9762C16.4654 14.5742 16.3655 14.8988 16.2815 15.1147C16.1704 15.401 16.0372 15.6048 15.8225 15.8193C15.6079 16.034 15.4041 16.1669 15.1177 16.278C14.9018 16.3624 14.577 16.462 13.979 16.4894C13.3324 16.5188 13.1382 16.5252 11.5005 16.5252C9.8628 16.5252 9.66871 16.5188 9.02215 16.4894C8.42414 16.4618 8.09958 16.3619 7.88325 16.2779C7.59702 16.1667 7.39258 16.0339 7.17791 15.8192C6.96324 15.6045 6.83035 15.4006 6.71893 15.1142C6.63498 14.8983 6.53493 14.5737 6.50771 13.9757C6.47832 13.3292 6.47244 13.1349 6.47244 11.4971C6.47244 9.85918 6.47832 9.66598 6.50771 9.01942C6.53505 8.42141 6.63498 8.09685 6.71893 7.88065C6.83009 7.59442 6.96324 7.38998 7.17791 7.17531C7.39258 6.96064 7.59702 6.82775 7.88325 6.71633C8.09945 6.63199 8.42414 6.53232 9.02215 6.50485C9.58795 6.47929 9.80722 6.47163 10.9503 6.47035V6.47188ZM14.7745 7.49029C14.3682 7.49029 14.0385 7.81957 14.0385 8.22604C14.0385 8.63238 14.3682 8.96205 14.7745 8.96205C15.1808 8.96205 15.5105 8.63238 15.5105 8.22604C15.5105 7.8197 15.1808 7.49029 14.7745 7.49029ZM11.5006 8.35024C9.76113 8.35024 8.35083 9.76054 8.35083 11.5C8.35083 13.2394 9.76113 14.6491 11.5006 14.6491C13.24 14.6491 14.6498 13.2394 14.6498 11.5C14.6498 9.76054 13.24 8.35024 11.5006 8.35024ZM11.5006 9.45553C12.6296 9.45553 13.545 10.3708 13.545 11.5C13.545 12.629 12.6296 13.5445 11.5006 13.5445C10.3714 13.5445 9.4561 12.629 9.4561 11.5C9.4561 10.3708 10.3714 9.45553 11.5006 9.45553Z" fill="#263238"/>
</svg>
